<svg width="65" height="75" fill="none" xmlns="http://www.w3.org/2000/svg"><path fill-rule="evenodd" clip-rule="evenodd" d="M36.58 11.712c.413-.045.473.525.53.785.159-.102.3-.005.337-.243.504.536.908 1.152 1.356 1.735.43.56 1.101 1.005 1.473 1.593.315.499-.205 1.257-.27 1.79-.072.6.082 1.286.486 1.743.188.214.419.363.698.42.277.057.541-.108.786-.073.202.03.211.165.282.368.097.277.22.539.45.734.255.217.53.28.725.572.17.256.267.503.53.68.353.236.918.307.88.86.06-.05.121-.098.182-.147.14.458.333.902.54 1.333.096.202.146.309.141.534-.003.148-.083.26.003.403.138.23.508.198.677.384.173.19-.007.448.193.613-.084.027-.317.218-.23.334.127.167.136-.062.225-.034.203.063.16.32.318.39.033.015.03-.14.029-.179v-.002l.122.243c1.03 2.024 2.237 3.952 3.208 6.006l.115.247c1.827 3.966 4 7.829 6.402 11.467.567.858 1.189 1.71 1.713 2.594.526.887 1.182 1.673 1.765 2.521.599.873 1.147 1.781 1.751 2.65.482.693 1.07 1.43 1.063 2.324-.004.397-.06.836-.438 1.049-.009-.164-.253.017-.31.057-.253.174-.116.155-.387.094-.44-.098-.817.035-1.224-.219-.864-.54-1.716-1.093-2.596-1.608-1.9-1.112-3.783-2.25-5.547-3.579-3.083-2.323-6.433-4.404-9.266-7.047-2.831-2.64-5.803-5.26-9.163-7.19-.225-.13-.87-.324-.81-.633.051-.27.632-.65.835-.837.707-.65 1.443-1.266 2.125-1.944 1.258-1.252 2.507-2.633 3.516-4.102.491-.714.742-1.51 1.029-2.322.253-.717.486-1.6.076-2.309-.19-.328-.453-.462-.82-.437-.304.02-.29.084-.41-.243-.13-.352-.236-.761-.583-.965-.36-.212-.606.014-.898.225-.336-.492-.747-1.344-1.424-1.39-.707-.05-1.108.837-1.352 1.37-.721 1.576-1.66 3.049-2.67 4.453-1.094 1.521-2.213 3.07-3.419 4.502-.255.304-.545.746-.905.93-.369.19-.675.012-.987-.206-.735-.511-1.45-1.037-2.215-1.506-.847-.519-1.718-.995-2.583-1.484-.381-.215-.743-.475-1.136-.67-.366-.18-.765-.27-1.14-.427 1.377-.417 2.826.129 4.129.562.676.225 1.383.459 2.105.398.624-.052 1.191-.392 1.685-.762.892-.67.963-1.677.671-2.695-.335-1.17-.847-2.297-1.234-3.452-.176-.525-.297-1.083.104-1.537.358-.406.822-.456 1.312-.296 1.187.387 2.24.751 3.512.715.994-.03 2.26-.316 2.93-1.137.367-.45.381-1.068.382-1.626a14.119 14.119 0 00-.13-1.982c-.163-1.168-.585-2.338-.055-3.472.124-.266.469-.886.81-.923zm10.34 14.59zM5.753 20.818c.311-.437 1.162-1.454 1.812-1.232.113.04.195.154.27.24l.158.21c.032.093.09.12.174.082.228.32.55.563.68.956.13.39.479.768.684 1.126.159.277.517 1.015.49 1.361v.883c-.033.343-.664.957-.887 1.19-.551.576-1.15.65-1.968.576-.693-.062-1.59-.297-2.058-.855-.45-.537-.444-1.368-.377-2.029.093-.922.491-1.762 1.022-2.508zm2.13.146c-.126-.239-.403-.298-.647-.27-.244.029-.523.05-.747.16-.206.102-.31.28-.568.22.102.179-.08.282-.107.442a.656.656 0 00.166.548c.278.324.693.318 1.08.35.326.026.728.081.92.392.123.2.011.345.069.546.043.148.221.233.3.36.26-.39.251-1.227.092-1.644a3.786 3.786 0 00-.33-.628c-.038-.057-.125-.124-.148-.171-.04-.081-.035-.222-.08-.305z" fill="#D6715B"/><path fill-rule="evenodd" clip-rule="evenodd" d="M38.348 73.063c.473-.188 1.056-.1 1.551-.091.623.011 1.247.06 1.867.109 1.192.094 2.377.054 3.57.168.592.056 1.184.108 1.777.159.519.045 1.121.184 1.64.084.213-.042.79-.246.683-.564-.083-.245-.732-.397-.944-.466-.498-.165-1.012-.282-1.515-.43-.259-.074-.516-.155-.788-.129-.231.022-.475.197-.709.177-.346-.03-.524-.471-.778-.666-.404-.31-.704-.144-1.014.198-.23.252-.448.634-.824.657-.478.029-.57-.388-.36-.74.195-.326.724-.66.752-1.065.018-.257-.385-.942-.618-1.04-.39-.164-.943.27-1.296.404-.617.232-1.247.438-1.871.648-.427.144-1.061.157-1.142.665-.101.636.022 1.283.019 1.922zm-24.45-9.785c.124-.28.254-.438.006-.697-.14-.145-.335-.217-.472-.367-.205-.226-.527-.844-.087-1 .421-.149.776.446 1.114.577.43.165.696-.113.758-.53.079-.536-.008-1.095.055-1.638.061-.531.244-.973.385-1.482.095-.345.211-.693-.22-.77-.396-.07-.855.097-1.257.12-.626.035-1.26.067-1.88.162-.694.107-.681.826-.855 1.415-.422 1.427-.988 2.826-1.252 4.297-.113.634.188 1.069.538 1.568.44.624.896 1.246 1.393 1.825.332.386.706.746 1.19.924.547.2.756-.023.63-.57-.167-.724-.419-1.423-.39-2.176.012-.275.09-.57-.105-.799-.135-.16-.366-.213-.543-.31-.29-.16-.74-.674-.174-.785.384-.075.793.188 1.165.236zm13.077-28.335c.346.391.721.766 1.05 1.173.187.234.32.514.522.736.441.484.881-.053 1.272-.367 1.538-1.234 2.985-2.572 4.45-3.893.698-.63 1.44-1.21 2.128-1.852.696-.65 1.275-1.41 1.927-2.103.313-.332.688-.662.88-1.087.166-.362.202-.756.39-1.114.325-.62.922-1.34.785-2.09-.403.429-1.074 1.965-1.776 1.245-.502-.515.01-1.275-.012-1.875-.476.206-.353 1.038-.86 1.185-.275.08-.51-.173-.638-.394-.222-.383-.14-.783-.04-1.19.069-.276.506-1.189.074-1.301-.375-.098-.69.602-.814.85-.228.456-.404.926-.654 1.371-.431.768-.928 1.5-1.401 2.242-.976 1.526-2.088 2.959-3.232 4.357-1.222 1.495-2.544 2.903-4.05 4.107zm10.834 4.854c-.05 1.344-1.187 2.364-2.171 3.111-1.258.956-2.419 2.041-3.919 2.585-.577.21-1.299.149-1.53.81-.09.257-.008.352.09.612.153.406.245.847.318 1.275.247 1.455.007 2.937-.854 4.149-.458.644-1.043 1.192-1.648 1.69-.603.499-1.174 1.08-1.84 1.492-1.418.879-2.994 1.383-4.63 1.626-.85.126-1.705.239-2.564.283-.445.023-.892.028-1.338.008-.199-.009-.94-.18-1.083-.064-.111.09-.16.63-.183.779-.047.315-.084.625-.148.938-.129.627-.302 1.336-.113 1.969.055.183.1.332.267.393.105.04.293-.03.4-.04a3.31 3.31 0 01.713-.01c.799.086 1.582.294 2.39.237 1.72-.12 3.441-.243 5.146-.516.829-.133 1.624-.385 2.44-.58.777-.184 1.553-.371 2.279-.72a16.582 16.582 0 003.907-2.639c1.252-1.128 2.081-2.464 2.865-3.956.688-1.31 1.269-2.637 1.238-4.147-.019-.956-.154-2.14.39-2.984.25-.385.75-.742 1.218-.538.848.37.047 1.102-.276 1.502-.466.578-.404 1.458-.452 2.164-.057.834-.242 1.565-.421 2.371-.176.79.178 1.726.214 2.53.038.873.013 1.747.003 2.62-.019 1.737.06 3.47.054 5.206-.003.9.02 1.806-.036 2.705-.051.82-.216 1.605-.361 2.41-.142.79-.35 1.737-.302 2.54 1.944-.751 3.835-1.638 5.809-2.31-.616-.544-.643-1.314-.693-2.083-.065-1.013-.23-2.018-.301-3.032-.142-2.001-.102-4.107.066-6.106.18-2.146.499-4.285.565-6.441a16.286 16.286 0 00-.215-3.104c-.14-.863-.262-1.95-.705-2.714-.424-.731-1.202-1.195-1.852-1.693-.95-.728-1.83-1.547-2.737-2.328zm.117-28.074c.244.334.519.642.81.934.3.301.428.235.787.078.714-.312.7-.672.302-1.297-.925-1.45-1.276-3.175-2.254-4.595-.964-1.399-2.366-2.529-3.839-3.335-1.58-.866-3.291-1.141-5.072-1.115-.91.013-1.826.077-2.73.18-.88.1-1.662.394-2.514.615-.428.112-.87.204-1.287.357-.366.134-.694.342-1.064.467-.809.275-1.622.581-2.352 1.03a17.11 17.11 0 00-2.004 1.446c-.671.557-1.254 1.206-1.98 1.696-.66.446-1.185 1.047-1.784 1.57a10.118 10.118 0 00-1.673 1.905c-.459.675-.634 1.548-.91 2.309-.324.886-.644 1.832-.765 2.772-.227 1.75.282 3.795.928 5.414.64 1.602 1.676 2.939 2.913 4.111.603.572 1.261 1.091 1.998 1.473.631.328 1.453.916 2.14.505.278-.166.503-.36.825-.435.35-.082.695-.048.978-.31.241-.222.356-.49.673-.624.375-.16.819-.188 1.22-.187.902.003 1.805.232 2.665.486.79.233 1.45.585 2.287.372.623-.159 1.622-.579 1.756-1.304.12-.648-.343-1.485-.576-2.065-.322-.802-.614-1.59-.817-2.432-.16-.668-.412-1.736.041-2.346.445-.6 1.474-.592 2.113-.441.42.098.804.297 1.224.398.427.102.868.153 1.304.203 1.51.174 3.657-.218 3.577-2.177-.072-1.746-1.02-3.496-.464-5.244.226-.712.688-1.536 1.457-1.724.61-.15 1.434.007 1.973.331.431.26.86.805.114.979zM7.612 19.52c-1.521.302-2.528 1.93-2.807 3.375-.126.654-.17 1.434.074 2.067.281.73 1.078 1.035 1.78 1.188.804.175 1.515.106 2.152-.459.28-.249.517-.538.718-.855.206-.323.492-.56.285-.921-.513-.896-.95-1.777-1.288-2.763-.15-.44-.284-.87-.384-1.323-.08-.36-.118-.58-.53-.309zm13.327 9.777a3.138 3.138 0 01-1.013.672c-.417.17-.543.088-.522.578.023.54.026.974-.216 1.477-.114.235-.534.553-.454.818.113.38 1.279.765 1.619.898.813.318 1.763.325 2.53-.125.893-.522.971-1.47.635-2.385-.035-.098-.166-.263-.134-.37.06-.196.302-.168.44-.093.302.162.429.656.494.964.173.822-.146 1.713-.752 2.28-.308.287-.693.48-1.086.618a3.022 3.022 0 01-.693.166c-.19.019-.43-.042-.612.013-.32.097-.335.498-.415.791-.143.525-.203 1.092-.222 1.634-.03.877.073 1.995.57 2.738 1.16 1.735 3.401 2.337 5.151 3.23.931.475 1.794 1.071 2.622 1.708.082.063.204.187.303.236.332.166.042.105.254-.004.164-.085.304-.268.473-.363.39-.22.827-.34 1.223-.547.922-.484 1.737-1.085 2.554-1.725.838-.657 1.686-1.256 2.45-2.004.323-.315.686-.574 1.013-.876.33-.304-.092-.43-.371-.653-.95-.761-1.886-1.547-2.9-2.22-.338-.224-.636-.526-.989-.725-.368-.207-.587-.021-.877.242-.317.288-.62.57-.972.816-.466.326-1.008.482-1.477.792.301.32 1.035.427 1.141.911.108.491-.612.874-.948 1.064-.594.334-1.25.538-1.912.683-.55.12-1.367-.061-1.809.361-.126-.27-.244-.411-.036-.67.206-.258.575-.303.867-.402.789-.268 1.566-.626 2.329-.96-.101-.242-.355-.406-.548-.563a4.91 4.91 0 01-.73-.75c-.429-.53-.812-1.097-1.22-1.644-.177-.237-.338-.473-.66-.342-.285.116-.564.416-.837.572-.62.352-1.161.69-1.843.914-.274.09-1.399.347-1.1-.351.09-.207.385-.292.568-.383.337-.167.673-.338.998-.529.668-.392 1.256-.899 1.88-1.355.69-.503 1.39-.992 2.037-1.551-.644-.433-1.358-.75-2.023-1.146-.673-.4-1.35-.762-2.046-1.118-.554-.283-1.117-.584-1.622-.95-.2-.146-.892-.75-1.112-.372zm20.235-14.079a3.79 3.79 0 00-.251.074c.564.876-.06 1.96.117 2.908.521-.313.59-1.53 1.38-1.304.852.242.428 1.306.686 1.915.403-.357.873-.023 1.039.4.18.46-.07.884.014 1.338.087.47.345.162.489-.115.183-.354.342-.832.275-1.236-.082-.492-.407-.95-.608-1.396-.2-.444-.39-.897-.68-1.29-.549-.747-1.502-1.417-2.46-1.294zm5.456 10.504c-.368-.934-.913-1.788-1.262-2.73-.102-.274-.158-.713-.428-.883-.177-.11-.412-.044-.607-.104s-.4-.202-.54-.349c-.255-.268-.338-.637-.639-.87-.388-.303-.689-.418-.873-.923-.145-.396-.146-.454-.582-.365-.476.096-.863-.022-1.192-.4-.556-.64-.618-1.54-.344-2.313.127-.36.35-.78.165-1.159-.172-.35-.588-.603-.852-.883-.667-.707-1.188-1.535-1.814-2.277-.15-.178-.303-.355-.418-.559-.073-.13-.116-.351-.286-.388-.292-.063-.7.45-.848.637-1.076 1.368-.306 3.231-.175 4.774.067.785.217 1.727-.126 2.466-.323.697-1.141 1.045-1.83 1.239-.93.261-1.93.25-2.876.091a7.455 7.455 0 01-1.44-.405c-.48-.184-.98-.501-1.468-.167-.632.431-.437 1.297-.298 1.928.226 1.031.622 1.993.972 2.983.294.832.532 1.875-.086 2.62-.617.743-1.64 1.208-2.593 1.17-1.975-.08-3.778-1.576-5.796-.964.38.159.78.252 1.15.435.448.22.862.512 1.296.756.833.47 1.67.933 2.484 1.436.736.454 1.432.952 2.135 1.456.875.627 1.336-.068 1.898-.746 1.225-1.48 2.392-3.046 3.506-4.615.968-1.363 1.867-2.786 2.568-4.309.25-.545.672-1.47 1.405-1.362.651.096 1.03.893 1.367 1.381.235-.17.436-.4.753-.305.263.078.445.352.561.585.08.161.135.702.269.784.095.058.459-.067.62-.029.556.13.733.855.727 1.357-.007.693-.293 1.387-.526 2.028-.524 1.438-1.421 2.562-2.41 3.699a37.533 37.533 0 01-3.187 3.222c-.28.253-.556.508-.828.769-.224.213-.578.435-.752.686-.324.464.542.675.864.845 1.386.73 2.663 1.693 3.883 2.674 1.258 1.012 2.524 2.028 3.733 3.1 1.184 1.05 2.3 2.167 3.547 3.143 1.28 1.002 2.62 1.928 3.936 2.881 1.317.955 2.598 1.959 3.913 2.915 1.285.934 2.664 1.735 4.016 2.564.707.434 1.418.861 2.128 1.29.575.346 1.198.884 1.879.928.614.04 1.196.269 1.562-.409.279-.514.163-1.221-.08-1.721-.298-.61-.763-1.17-1.137-1.735-.43-.648-.83-1.316-1.254-1.968-.407-.626-.859-1.203-1.313-1.792-.46-.598-.81-1.271-1.22-1.904-.876-1.352-1.778-2.68-2.609-4.063-1.906-3.171-3.613-6.445-5.245-9.768-.143-.292-3.497-6.325-3.403-6.377zm-2.684 19.496c1.025 3.596.434 7.253.224 10.911-.107 1.85-.123 3.71-.17 5.563-.023.9-.021 1.801.016 2.701.018.453.05.904.083 1.356.028.4-.078.841-.028 1.227.063.494 1.029.59.732 1.224-.199.425-.896.49-1.27.67.167.195.427.487.703.505.25.017.442-.203.666-.286.198-.074.471-.145.597.09.13.246-.144.52-.253.711.37.073.626-.151.959-.13.35.02.367.371.597.574.264.232.724.282 1.049.38a5.26 5.26 0 011.102.45c.615.353 1.144 1.018 1.371 1.699.236.705-.132 1.316-.68 1.749-.204.161-.497.349-.768.262-.31-.1-.358-.355-.735-.337-.34.017-.661.155-1.002.173-.5.026-1-.067-1.502-.048-2.023.08-4.046.097-6.065-.1a23.805 23.805 0 00-1.55-.11c-.4-.013-.434-.317-.502-.697-.163-.92.2-1.825.02-2.719.011.06-.272-.094-.306-.124-.208-.177-.278-.43-.34-.693-.165-.7-.163-1.412-.112-2.125.116-1.62.413-3.223.388-4.85-.012-.821.012-1.64.013-2.46 0-.753.067-1.496.073-2.245.014-1.64.184-3.261.231-4.9-.336.332-.514.795-.728 1.21-.262.51-.555 1.014-.876 1.488-.663.98-1.551 1.776-2.472 2.498-1.757 1.379-3.666 2.447-5.818 3.031a43.422 43.422 0 01-7.09 1.3c-.555.056-1.117.086-1.674.031-.365-.036-.958-.335-1.304-.183-.394.172-.473.587-.99.471-.197-.044-.34-.178-.512-.268-.254-.133-.264-.041-.507-.024-.27.019-.432-.118-.667.102-.2.188-.18.32.002.495.257.247.667.288.924.546.25.25.206.559-.18.562-.39.004-.734-.277-1.114-.313.08 1.14.419 2.415.044 3.534-.174.52-.547.854-1.103.85-.931-.006-1.748-.876-2.309-1.553-.31-.375-.561-.795-.86-1.18-.306-.392-.635-.786-.81-1.26-.186-.505-.132-1.012-.027-1.53.129-.641.248-1.29.404-1.924.302-1.232.91-2.357 1.217-3.585.116-.464.115-1.01.408-1.408.31-.422.793-.449 1.272-.422.592.033 1.184.1 1.774.168.372.043 1.187.316 1.49.083.104-.08.105-.29.226-.362.118-.07.308-.02.436-.01.637.048 1.279.107 1.916.125 2.37.07 4.871-.304 6.987-1.422.982-.52 1.73-1.336 2.52-2.107.775-.759 1.452-1.575 1.66-2.676a6.755 6.755 0 00-.198-3.181c-.308-.948-1.403-1.522-2.2-1.99-1.104-.648-2.277-1.185-3.468-1.65-.188-.074-.418-.168-.626-.13-.255.046-.426.27-.658.369-.275.117-.613.118-.904.187-.282.066-.556.158-.844.202-.904.139-2.175.028-2.922-.559-1.221-.958-.483-2.315-.091-3.482-.415-.014-.76.085-1.156-.096a1.779 1.779 0 01-.883-.896c-.328-.725-.139-1.558-.042-2.314.044-.341.094-.68.222-1.002.1-.248.263-.485.323-.748.066-.29-.02-.307-.258-.445a2.254 2.254 0 01-.855-.834c-.44-.734-.45-1.535-.09-2.307.146-.313.494-.742.454-1.107-.034-.314-.384-.559-.59-.764a22.601 22.601 0 00-2.019-1.775c-.33-.26-.693-.494-.993-.788-.22-.216-.443-.684-.743-.798-.3-.113-.5.228-.71.41-.327.286-.64.613-.995.86-.639.443-1.43.36-2.15.219-.753-.148-1.451-.408-2.093-.838-.255-.17-.553-.517-.867-.545-.335-.03-.7.31-.94.512-.625.531-.813 1.355-1.177 2.068-.407.796-.58 1.622-.47 2.517.1.805.405 1.414.86 2.064.094.135.314.389.153.538-.197.181-.6-.184-.732-.301C.752 32.13.007 30.365.433 28.598c.228-.95.675-1.827 1.195-2.644.22-.347.436-.694.82-.871.437-.202.932-.178 1.4-.226-.324-1.606-.425-3.352.568-4.752.761-1.073 2.32-2.013 3.557-1.142-.051-1.184-.217-2.307.093-3.473a8.6 8.6 0 01.563-1.516c.23-.476.546-.88.732-1.376.73-1.956 2.133-3.702 3.63-5.106 1.514-1.419 3-3.15 4.907-4.037 1.99-.926 4.016-1.759 6.173-2.18C26.31.84 28.61.75 30.867 1.164c1.977.362 3.807 1.581 5.303 2.896 1.707 1.5 2.81 3.307 3.681 5.401.192.46.377.924.611 1.364.261.488.596.941.787 1.465.171.466.2.973-.104 1.39-.214.293-.653.36-.84.627-.095.136-.086.264.122.305.215.041.317-.202.471-.299.384-.243.925-.036 1.313.102.92.327 1.64.913 2.191 1.726.527.779.877 1.663 1.225 2.533.22.55.428 1.095.55 1.676.045.22.108.813-.232.552-.139-.105-.336.695-.299.822.13.443.592.858.864 1.217.639.843 1.067 1.788 1.518 2.741.976 2.065 2.064 4.07 3.108 6.098 2.128 4.132 4.453 8.106 6.892 12.055a157.932 157.932 0 003.746 5.782c.57.839 1.142 1.678 1.7 2.525.473.72.94 1.523.819 2.421-.112.823-.593 1.484-1.372 1.754-.417.144-.912.31-1.36.266-.487-.049-.918-.38-1.325-.63a5245.98 5245.98 0 00-5.613-3.43c-2.093-1.278-4.008-2.795-6.005-4.216-1.016-.723-2.064-1.374-3.122-2.029-.239-.147-1.32-1.203-1.55-1.059z" fill="#000"/><path fill-rule="evenodd" clip-rule="evenodd" d="M25.822 48.856c-.512.765-1.05 1.483-1.769 2.063-.758.611-1.55 1.106-2.397 1.58-1.493.836-3.494 1.576-5.228 1.197-.493-.107-1.282-.545-.854-1.17.216-.315.678-.233 1.005-.216.527.028.988.058 1.493-.122.928-.33 1.863-.643 2.77-1.032.877-.378 1.647-.896 2.452-1.404.755-.477 1.331-1.048 1.995-1.625.181-.158.494-.434.666-.127.124.222-.065.64-.133.856zm20.659-36.715c-.057.331-.211.99-.67.9-.585-.115-.297-1.278-.306-1.673-.039-1.721-.591-3.376-1.41-4.868-.406-.742-.907-1.428-1.277-2.19-.072-.149-.29-.516-.132-.677.19-.193.555.098.69.236.517.533.93 1.332 1.33 1.96.534.836 1.005 1.72 1.344 2.66.41 1.134.639 2.45.431 3.652zm1.095-5.503c.055.298.322 1.11-.154 1.182-.541.082-.71-1.271-.86-1.63-.078-.188-.5-1.02-.28-1.202.457-.377 1.186 1.41 1.294 1.65zM22.128 46.906c-.514.475-1.11.447-1.757.402-.33-.023-1.091-.22-.562-.635.277-.216 2.447-.365 2.319.233zM62.12 55.6c.037-.073.345-.427.41-.284.063.135-.329.28-.41.285zM21.298 29.35c-.063.132-.327.017-.418.037.124-.268.27-.211.418-.037zm19.837-14.036l-.082.318-.127-.238.209-.08zm.504 20.03a27.9 27.9 0 001.98.123c.559.017.788-.09.86-.68.084-.698.113-1.402.197-2.101.038-.317.342-.952-.023-1.122-.307-.142-.784.062-1.105.086-.357.027-.896-.084-1.212.13-.337.23-.264 1.036-.321 1.413-.11.72-.242 1.436-.376 2.151zm-.315-3.392c-.596.046-1.195.082-1.79.147-.266.029-.802.162-1.025-.034-.525-.46 1.435-.62 1.657-.657.375-.061 1.016.02 1.256-.34.237-.354.177-.95.239-1.363.092-.62.198-1.24.26-1.865.02-.21-.01-.903.209-1.006.502-.237.344 2.203.336 2.387-.014.315-.03.631-.073.943-.025.176-.11.414-.057.591.15.508 1.01.215 1.402.175.438-.046 1.116.127 1.261-.423.183-.69.156-1.475.224-2.186.019-.197.067-1.664.424-1.55.398.126.243 1.353.24 1.669-.005.356-.003.713-.027 1.069-.021.32-.11.711-.044 1.028.115.555.763.26.951.701.179.42-.796.091-.978.235-.272.216-.206 1.115-.245 1.43-.085.692-.249 1.41-.302 2.1-.042.545.39.473.828.433.376-.033.79-.124 1.167-.073.303.04.726.324.285.513-.69.295-2.094-.308-2.44.588-.066.169-.37 2.129-.752 1.162-.16-.405.231-1.04-.186-1.35-.145-.107-.36-.088-.528-.1a25.762 25.762 0 00-1.243-.048c-.412-.008-.783-.093-.943.366-.124.358-.11.758-.21 1.124-.074.275-.318.755-.571.306-.167-.295-.04-.81-.007-1.13.017-.161.111-.493-.009-.628-.129-.145-.473-.066-.636-.053-.47.037-1.346.267-1.706-.166-.3-.362.325-.369.571-.393.254-.026.508-.049.76-.076.28-.03.649.01.911-.079.441-.149.41-.757.439-1.152.056-.771.227-1.533.352-2.295zm7.746 1.647c-.036.445-.084.944-.225 1.367-.107.32-.324.417-.397.01-.047-.258.264-1.712.621-1.377zm-27.832-2.931c-.176-.128-1.008-.802-.407-.83.308-.013.97.5.989.785.005.072-.147.11-.139.179.016.132.21.195.271.3.137.232.08.691-.097.912-.403.503-.852-.349-.54-.516-.069.037-1.004-.446-1.039-.555-.192-.597.915-.034.962-.275zm1.468 2.35c-.214.007-.643-.008-.803-.163-.297-.288.283-.326.453-.46.237-.188.284-.8.657-.421.37.375.045.811-.307 1.044zm-3.079-1.586c.386-.058 1.245.787.829.843-.276.038-.768-.618-.829-.843z" fill="#000"/></svg>